<svg xmlns="http://www.w3.org/2000/svg" xmlns:xlink="http://www.w3.org/1999/xlink" width="793" zoomAndPan="magnify" viewBox="0 0 594.95996 842.24997" height="1122" preserveAspectRatio="xMidYMid meet" version="1.0"><defs><clipPath id="id1"><path d="M 9 34.019531 L 585.9375 34.019531 L 585.9375 806.683594 L 9 806.683594 Z M 9 34.019531 " clip-rule="nonzero"/></clipPath></defs><g clip-path="url(#id1)"><path fill="#ffffff" d="M 585.453125 805.300781 L 11.273438 806.703125 L 9.378906 35.417969 L 583.558594 34 L 585.453125 805.300781 " fill-opacity="1" fill-rule="nonzero"/></g><path fill="#bdbcbc" d="M 289.261719 346.785156 L 50.414062 347.375 L 49.757812 78.746094 L 288.609375 78.15625 L 289.261719 346.785156 " fill-opacity="1" fill-rule="nonzero"/><path fill="#150a05" d="M 107.828125 201.550781 C 107.089844 202.625 105.054688 294.164062 121.179688 312.855469 L 212.167969 312.652344 C 212.167969 312.652344 236.835938 242.3125 219.808594 201.28125 L 107.285156 201.550781 L 107.828125 201.550781 " fill-opacity="1" fill-rule="nonzero"/><path fill="#f9b095" d="M 194.871094 285.601562 L 144.5 285.734375 L 144.410156 251.777344 L 194.78125 251.648438 L 194.871094 285.601562 " fill-opacity="1" fill-rule="nonzero"/><path fill="#150a05" d="M 194.855469 279.753906 L 194.78125 251.648438 L 194.855469 279.753906 M 144.460938 269.347656 L 144.410156 251.777344 L 144.460938 269.347656 " fill-opacity="1" fill-rule="nonzero"/><path fill="#e4a187" d="M 181.191406 281.148438 C 181.058594 281.148438 180.929688 281.148438 180.796875 281.148438 C 172.625 281.105469 164.296875 279.292969 156.699219 276.300781 C 152.535156 274.660156 148 272.4375 144.460938 269.347656 L 144.410156 251.777344 L 194.78125 251.648438 L 194.855469 279.753906 C 190.363281 280.558594 185.75 281.148438 181.191406 281.148438 " fill-opacity="1" fill-rule="nonzero"/><path fill="#f9b095" d="M 223.980469 187.675781 C 224.144531 186.425781 226.261719 184.386719 227.1875 183.703125 C 229.25 182.164062 231.34375 183.730469 231.949219 185.730469 C 232.480469 187.5 232.546875 189.503906 232.6875 191.347656 C 233.015625 195.859375 232.34375 200.296875 230.316406 204.363281 C 228.972656 207.078125 226.839844 209.328125 224.339844 211 C 224.339844 211 221.644531 212.359375 221.078125 209.261719 L 223.980469 187.675781 " fill-opacity="1" fill-rule="nonzero"/><path fill="#dd9c83" d="M 223.546875 190.390625 C 223.667969 189.488281 225.1875 188.035156 225.839844 187.535156 C 227.316406 186.4375 228.816406 187.566406 229.261719 188.984375 C 229.644531 190.257812 229.695312 191.691406 229.785156 193.011719 C 230.015625 196.238281 229.539062 199.410156 228.085938 202.320312 C 227.128906 204.273438 225.605469 205.875 223.808594 207.078125 C 223.808594 207.078125 221.875 208.039062 221.480469 205.832031 L 223.546875 190.390625 " fill-opacity="1" fill-rule="nonzero"/><path fill="#f9b095" d="M 113.636719 187.945312 C 113.457031 186.699219 111.335938 184.671875 110.410156 183.984375 C 108.335938 182.457031 106.261719 184.039062 105.664062 186.015625 C 105.121094 187.820312 105.074219 189.832031 104.957031 191.675781 C 104.636719 196.1875 105.335938 200.601562 107.382812 204.660156 C 108.746094 207.382812 110.867188 209.597656 113.382812 211.269531 C 113.382812 211.269531 116.105469 212.625 116.628906 209.523438 L 113.636719 187.945312 " fill-opacity="1" fill-rule="nonzero"/><path fill="#dd9c83" d="M 114.074219 190.660156 C 113.949219 189.757812 112.433594 188.304688 111.769531 187.820312 C 110.285156 186.722656 108.792969 187.855469 108.367188 189.289062 C 107.984375 190.554688 107.949219 191.996094 107.859375 193.316406 C 107.648438 196.546875 108.136719 199.714844 109.597656 202.617188 C 110.574219 204.5625 112.089844 206.152344 113.902344 207.351562 C 113.902344 207.351562 115.84375 208.308594 116.230469 206.085938 L 114.074219 190.660156 " fill-opacity="1" fill-rule="nonzero"/><path fill="#f9b095" d="M 225.644531 191.734375 C 225.679688 205.964844 223.257812 220.367188 216.578125 232.683594 C 210.742188 243.46875 201.964844 252.105469 192.542969 259.011719 C 184.898438 264.621094 176.691406 271.152344 167.003906 270.378906 C 156.894531 269.566406 149 260.980469 141.609375 254.273438 C 131.195312 244.847656 122.96875 233.109375 117.886719 219.300781 C 114.761719 210.792969 113.292969 201.191406 113.277344 192.011719 C 113.164062 146.007812 138.253906 117.015625 169.273438 116.941406 C 200.300781 116.859375 225.53125 145.730469 225.644531 191.734375 " fill-opacity="1" fill-rule="nonzero"/><path fill="#f9b095" d="M 246.375 300.839844 L 191.636719 284.550781 L 169.691406 284.601562 L 147.746094 284.660156 L 93.082031 301.210938 C 93.082031 301.210938 67.765625 312.070312 65.03125 346.195312 L 169.839844 345.941406 L 274.65625 345.679688 C 271.746094 311.550781 246.375 300.839844 246.375 300.839844 " fill-opacity="1" fill-rule="nonzero"/><path fill="#3bbec5" d="M 246.375 300.839844 L 216.101562 291.835938 L 169.820312 338.332031 L 123.171875 292.097656 L 93.082031 301.210938 C 93.082031 301.210938 67.765625 312.070312 65.03125 346.195312 L 169.839844 345.941406 L 274.65625 345.679688 C 271.746094 311.550781 246.375 300.839844 246.375 300.839844 " fill-opacity="1" fill-rule="nonzero"/><path fill="#351f17" d="M 131.1875 135.296875 C 131.1875 135.296875 158.355469 178.167969 225.457031 185.3125 C 225.457031 185.3125 238.023438 136.363281 190.78125 112.703125 C 190.78125 112.703125 154.640625 97.882812 131.1875 135.296875 " fill-opacity="1" fill-rule="nonzero"/><path fill="#351f17" d="M 138.148438 143.96875 C 138.148438 143.96875 120.703125 155.328125 113.203125 186.910156 C 113.203125 186.910156 104.917969 127.449219 146.960938 119.910156 L 138.148438 143.96875 " fill-opacity="1" fill-rule="nonzero"/><path fill="#351f17" d="M 206.808594 180.40625 C 206.808594 180.40625 225.078125 294.945312 196.726562 327.453125 C 196.726562 327.453125 233.078125 321.960938 234.753906 271.871094 C 234.753906 271.871094 240.980469 169.515625 216.285156 134.257812 L 206.808594 180.40625 " fill-opacity="1" fill-rule="nonzero"/><path fill="#351f17" d="M 130.1875 327.609375 C 130.1875 327.609375 88.300781 322.746094 99.507812 193.867188 C 99.507812 193.867188 102.210938 122.28125 144.089844 120.550781 L 141.738281 147.699219 C 141.738281 147.699219 117.6875 154.933594 120.933594 211.550781 C 120.933594 211.550781 118.710938 302.777344 130.1875 327.609375 " fill-opacity="1" fill-rule="nonzero"/><path fill="#183651" d="M 544.484375 92.675781 L 313.8125 93.25 L 313.78125 78.109375 L 544.441406 77.542969 L 544.484375 92.675781 " fill-opacity="1" fill-rule="nonzero"/><path fill="#183651" d="M 408.769531 124.519531 L 313.886719 124.75 L 313.847656 109.617188 L 408.730469 109.371094 L 408.769531 124.519531 " fill-opacity="1" fill-rule="nonzero"/><path fill="#183651" d="M 289.378906 398.898438 L 48.472656 399.5 L 48.429688 384.359375 L 289.363281 383.765625 L 289.378906 398.898438 " fill-opacity="1" fill-rule="nonzero"/><path fill="#bdbcbc" d="M 544.738281 199.246094 L 314.066406 199.8125 L 314.050781 193.429688 L 544.710938 192.867188 L 544.738281 199.246094 " fill-opacity="1" fill-rule="nonzero"/><path fill="#bdbcbc" d="M 544.777344 215.132812 L 314.109375 215.722656 L 314.09375 209.335938 L 544.761719 208.753906 L 544.777344 215.132812 " fill-opacity="1" fill-rule="nonzero"/><path fill="#bdbcbc" d="M 544.8125 231.050781 L 314.148438 231.625 L 314.132812 225.238281 L 544.792969 224.664062 L 544.8125 231.050781 " fill-opacity="1" fill-rule="nonzero"/><path fill="#bdbcbc" d="M 544.851562 246.957031 L 314.191406 247.53125 L 314.175781 241.132812 L 544.84375 240.566406 L 544.851562 246.957031 " fill-opacity="1" fill-rule="nonzero"/><path fill="#bdbcbc" d="M 544.890625 262.867188 L 314.222656 263.433594 L 314.214844 257.035156 L 544.867188 256.46875 L 544.890625 262.867188 " fill-opacity="1" fill-rule="nonzero"/><path fill="#bdbcbc" d="M 544.925781 278.761719 L 314.265625 279.335938 L 314.257812 272.9375 L 544.917969 272.378906 L 544.925781 278.761719 " fill-opacity="1" fill-rule="nonzero"/><path fill="#bdbcbc" d="M 544.964844 294.65625 L 314.3125 295.238281 L 314.28125 288.859375 L 544.957031 288.285156 L 544.964844 294.65625 " fill-opacity="1" fill-rule="nonzero"/><path fill="#bdbcbc" d="M 545.007812 310.574219 L 314.339844 311.140625 L 314.332031 304.761719 L 544.992188 304.179688 L 545.007812 310.574219 " fill-opacity="1" fill-rule="nonzero"/><path fill="#bdbcbc" d="M 545.054688 326.472656 L 314.386719 327.042969 L 314.371094 320.65625 L 545.023438 320.082031 L 545.054688 326.472656 " fill-opacity="1" fill-rule="nonzero"/><path fill="#bdbcbc" d="M 545.089844 342.382812 L 314.429688 342.949219 L 314.394531 336.558594 L 545.074219 335.992188 L 545.089844 342.382812 " fill-opacity="1" fill-rule="nonzero"/><path fill="#bdbcbc" d="M 545.269531 416.796875 L 50.585938 418.019531 L 50.578125 411.628906 L 545.253906 410.414062 L 545.269531 416.796875 " fill-opacity="1" fill-rule="nonzero"/><path fill="#bdbcbc" d="M 545.3125 432.699219 L 50.636719 433.921875 L 50.617188 427.53125 L 545.300781 426.308594 L 545.3125 432.699219 " fill-opacity="1" fill-rule="nonzero"/><path fill="#bdbcbc" d="M 545.351562 448.609375 L 50.667969 449.824219 L 50.660156 443.441406 L 545.335938 442.222656 L 545.351562 448.609375 " fill-opacity="1" fill-rule="nonzero"/><path fill="#bdbcbc" d="M 545.390625 464.503906 L 50.707031 465.726562 L 50.691406 459.335938 L 545.375 458.125 L 545.390625 464.503906 " fill-opacity="1" fill-rule="nonzero"/><path fill="#bdbcbc" d="M 545.433594 480.414062 L 50.75 481.636719 L 50.734375 475.242188 L 545.417969 474.027344 L 545.433594 480.414062 " fill-opacity="1" fill-rule="nonzero"/><path fill="#bdbcbc" d="M 259.179688 497.03125 L 50.789062 497.539062 L 50.773438 491.152344 L 259.164062 490.636719 L 259.179688 497.03125 " fill-opacity="1" fill-rule="nonzero"/><path fill="#bdbcbc" d="M 545.5 512.222656 L 50.824219 513.425781 L 50.816406 507.046875 L 545.484375 505.832031 L 545.5 512.222656 " fill-opacity="1" fill-rule="nonzero"/><path fill="#bdbcbc" d="M 545.539062 528.117188 L 50.863281 529.339844 L 50.855469 522.957031 L 545.523438 521.742188 L 545.539062 528.117188 " fill-opacity="1" fill-rule="nonzero"/><path fill="#bdbcbc" d="M 545.582031 544.027344 L 50.914062 545.25 L 50.882812 538.859375 L 545.566406 537.648438 L 545.582031 544.027344 " fill-opacity="1" fill-rule="nonzero"/><path fill="#bdbcbc" d="M 280.597656 560.585938 L 50.945312 561.152344 L 50.929688 554.753906 L 280.582031 554.199219 L 280.597656 560.585938 " fill-opacity="1" fill-rule="nonzero"/><path fill="#183651" d="M 290.910156 598.527344 L 49.996094 599.117188 L 49.953125 583.988281 L 290.878906 583.394531 L 290.910156 598.527344 " fill-opacity="1" fill-rule="nonzero"/><path fill="#bdbcbc" d="M 546.792969 616.425781 L 52.117188 617.644531 L 52.109375 611.257812 L 546.777344 610.035156 L 546.792969 616.425781 " fill-opacity="1" fill-rule="nonzero"/><path fill="#bdbcbc" d="M 546.835938 632.328125 L 52.167969 633.539062 L 52.144531 627.160156 L 546.828125 625.9375 L 546.835938 632.328125 " fill-opacity="1" fill-rule="nonzero"/><path fill="#bdbcbc" d="M 546.882812 648.238281 L 52.199219 649.453125 L 52.191406 643.0625 L 546.867188 641.847656 L 546.882812 648.238281 " fill-opacity="1" fill-rule="nonzero"/><path fill="#bdbcbc" d="M 546.925781 664.132812 L 52.242188 665.347656 L 52.226562 658.964844 L 546.894531 657.742188 L 546.925781 664.132812 " fill-opacity="1" fill-rule="nonzero"/><path fill="#bdbcbc" d="M 546.949219 680.042969 L 52.273438 681.257812 L 52.265625 674.859375 L 546.933594 673.640625 L 546.949219 680.042969 " fill-opacity="1" fill-rule="nonzero"/><path fill="#bdbcbc" d="M 260.710938 696.652344 L 52.316406 697.160156 L 52.308594 690.773438 L 260.695312 690.261719 L 260.710938 696.652344 " fill-opacity="1" fill-rule="nonzero"/><path fill="#bdbcbc" d="M 547.03125 711.851562 L 52.355469 713.054688 L 52.339844 706.675781 L 547.015625 705.453125 L 547.03125 711.851562 " fill-opacity="1" fill-rule="nonzero"/><path fill="#bdbcbc" d="M 547.074219 727.746094 L 52.398438 728.96875 L 52.382812 722.578125 L 547.054688 721.363281 L 547.074219 727.746094 " fill-opacity="1" fill-rule="nonzero"/><path fill="#bdbcbc" d="M 547.105469 743.65625 L 52.4375 744.878906 L 52.421875 738.480469 L 547.089844 737.257812 L 547.105469 743.65625 " fill-opacity="1" fill-rule="nonzero"/><path fill="#bdbcbc" d="M 282.132812 760.214844 L 52.472656 760.78125 L 52.464844 754.382812 L 282.125 753.808594 L 282.132812 760.214844 " fill-opacity="1" fill-rule="nonzero"/></svg>