<svg xmlns="http://www.w3.org/2000/svg" xmlns:xlink="http://www.w3.org/1999/xlink" width="529" zoomAndPan="magnify" viewBox="0 0 396.75 396.749984" height="529" preserveAspectRatio="xMidYMid meet" version="1.0"><defs><clipPath id="id1"><path d="M 30.382812 243 L 376.132812 243 L 376.132812 394 L 30.382812 394 Z M 30.382812 243 " clip-rule="nonzero"/></clipPath></defs><path fill="#ffffff" d="M 203.257812 2.914062 C 189.78125 2.914062 178.8125 13.871094 178.8125 27.34375 L 178.8125 209.171875 L 146.210938 176.597656 C 134.890625 165.601562 120.351562 168.402344 111.898438 176.847656 C 103.4375 185.292969 100.632812 199.78125 111.710938 211.210938 L 185.890625 285.351562 C 190.308594 289.921875 196.359375 292.46875 202.9375 292.519531 C 203.007812 292.519531 203.070312 292.519531 203.140625 292.519531 C 209.707031 292.519531 216.046875 289.9375 220.546875 285.429688 L 294.882812 211.140625 C 305.863281 199.777344 303.058594 185.28125 294.621094 176.835938 C 286.179688 168.394531 271.675781 165.613281 260.238281 176.664062 L 227.707031 209.171875 L 227.707031 27.34375 C 227.707031 13.871094 216.738281 2.914062 203.257812 2.914062 Z M 203.257812 2.914062 " fill-opacity="1" fill-rule="nonzero"/><g clip-path="url(#id1)"><path fill="#ffffff" d="M 54.730469 243.722656 C 41.253906 243.722656 30.28125 254.679688 30.28125 268.152344 L 30.28125 295.1875 C 30.28125 349.582031 74.558594 393.835938 128.996094 393.835938 L 277.523438 393.835938 C 331.960938 393.835938 376.238281 349.582031 376.238281 295.1875 L 376.238281 268.152344 C 376.238281 254.679688 365.269531 243.722656 351.789062 243.722656 C 338.3125 243.722656 327.339844 254.679688 327.339844 268.152344 L 327.339844 295.1875 C 327.339844 322.640625 304.992188 344.972656 277.523438 344.972656 L 128.996094 344.972656 C 101.527344 344.972656 79.179688 322.640625 79.179688 295.1875 L 79.179688 268.152344 C 79.179688 254.679688 68.207031 243.722656 54.730469 243.722656 Z M 54.730469 243.722656 " fill-opacity="1" fill-rule="nonzero"/></g></svg>